<svg xmlns="http://www.w3.org/2000/svg" viewBox="0 0 512 512"><rect width="512" height="512" rx="112" fill="#fff"/><path fill="#f58220" d="M0 0h512v142H0z"/><path fill="#08783e" d="M0 370h512v142H0z"/><circle cx="256" cy="256" r="94" fill="#fff" stroke="#172b45" stroke-width="12"/><path d="M213 310v-92c0-15 22-15 22 0v47h8v-80c0-16 23-16 23 0v80h8v-67c0-16 23-16 23 0v73h7v-49c0-15 22-15 22 0v81c0 38-27 67-67 67-36 0-63-21-76-45l-23-42c-8-16 13-28 23-14z" fill="#08783e" stroke="#172b45" stroke-width="6" stroke-linejoin="round"/></svg>
